<?xml version="1.0" encoding="utf-8"?>
<!-- Generator: Adobe Illustrator 25.2.3, SVG Export Plug-In . SVG Version: 6.00 Build 0)  -->
<svg version="1.1" id="Layer_1" xmlns="http://www.w3.org/2000/svg" xmlns:xlink="http://www.w3.org/1999/xlink" x="0px" y="0px"
	 viewBox="0 0 1920 760" style="enable-background:new 0 0 1920 760;" xml:space="preserve">
<style type="text/css">
	.st0{fill:#13BCFF;}
	.st1{fill:#198EFF;}
	.st2{fill:#FFFFFF;}
</style>
<g>
	<g>
		<g>
			<g>
				<ellipse class="st0" cx="337.7" cy="246.4" rx="215.6" ry="58.5"/>
			</g>
			<g>
				<g>
					<path class="st0" d="M548.7,279.9c1.5-1.9,4.7-0.8,4.7,1.7v93.9c0,32.3-96.6,58.5-215.7,58.5c-119.1,0-215.6-26.2-215.6-58.5
						v-93.9c0-2.5,3.1-3.6,4.7-1.7c14.7,18.8,62.7,34.3,126.6,41.7c25.9,3,54.5,4.6,84.4,4.6c30,0,58.5-1.7,84.4-4.6
						C486,314.2,534,298.7,548.7,279.9z"/>
				</g>
			</g>
			<g>
				<g>
					<path class="st1" d="M548.7,407.4c1.5-1.9,4.7-0.8,4.7,1.7v93.9c0,32.3-96.6,58.5-215.7,58.5c-119.1,0-215.6-26.2-215.6-58.5
						V409c0-2.5,3.1-3.6,4.7-1.7c14.7,18.8,62.7,34.3,126.6,41.7c25.9,3,54.5,4.6,84.4,4.6c30,0,58.5-1.7,84.4-4.6
						C486,441.7,534,426.2,548.7,407.4z"/>
				</g>
			</g>
			<g>
				<g>
					<path class="st1" d="M466.3,569.7v107.7c-36.6,7.3-80.5,11.5-128.6,11.5c-119.1,0-215.7-26.2-215.7-58.5v-93.9
						c0-2.5,3.2-3.6,4.7-1.6c14.7,18.8,62.7,34.3,126.6,41.7c25.9,3,54.5,4.6,84.4,4.6c30,0,58.6-1.6,84.5-4.6
						C437.9,574.7,453.1,572.4,466.3,569.7z"/>
				</g>
			</g>
		</g>
		<g>
			<g>
				<path class="st1" d="M473.6,233.7h23.9c2.4,0,4.4-2,4.4-4.4v-23.9c0-2.4-2-4.4-4.4-4.4h-23.9c-2.4,0-4.4,2-4.4,4.4v23.9
					C469.2,231.8,471.2,233.7,473.6,233.7z"/>
			</g>
			<g>
				<path class="st0" d="M526.3,198.2h36.7c4,0,7.3-3.3,7.3-7.3v-36.7c0-4-3.3-7.3-7.3-7.3h-36.7c-4,0-7.3,3.3-7.3,7.3v36.7
					C519,194.9,522.3,198.2,526.3,198.2z"/>
			</g>
			<g>
				<path class="st1" d="M604.9,151.2h36.7c4,0,7.3-3.3,7.3-7.3v-36.7c0-4-3.3-7.3-7.3-7.3h-36.7c-4,0-7.3,3.3-7.3,7.3v36.7
					C597.6,147.9,600.9,151.2,604.9,151.2z"/>
			</g>
			<g>
				<path class="st0" d="M519.8,125.5h60c4,0,7.3-3.3,7.3-7.3v-60c0-4-3.3-7.3-7.3-7.3h-60c-4,0-7.3,3.3-7.3,7.3v60
					C512.5,122.3,515.7,125.5,519.8,125.5z"/>
			</g>
			<g>
				<path class="st1" d="M445,172.5h48.3c4,0,7.3-3.3,7.3-7.3v-48.3c0-4-3.3-7.3-7.3-7.3H445c-4,0-7.3,3.3-7.3,7.3v48.3
					C437.7,169.2,441,172.5,445,172.5z"/>
			</g>
		</g>
	</g>
	<path class="st2" d="M358.8,388.5h-44.4c-2.9,0-5.3-2.4-5.3-5.3v-13.1c0-2.9,2.4-5.3,5.3-5.3h44.4c2.9,0,5.3,2.4,5.3,5.3v13.1
		C364.1,386.1,361.7,388.5,358.8,388.5z"/>
	<path class="st2" d="M373.6,517h-74c-2.9,0-5.3-2.4-5.3-5.3v-13.1c0-2.9,2.4-5.3,5.3-5.3h74c2.9,0,5.3,2.4,5.3,5.3v13.1
		C378.9,514.6,376.5,517,373.6,517z"/>
	<path class="st2" d="M404.9,645.5H268.3c-2.9,0-5.3-2.4-5.3-5.3v-13.1c0-2.9,2.4-5.3,5.3-5.3h136.7c2.9,0,5.3,2.4,5.3,5.3v13.1
		C410.2,643.1,407.8,645.5,404.9,645.5z"/>
</g>
<g>
	<path class="st0" d="M590.3,549.8v22.6l-21.4-2.2v110.4h-26.8V569.8l-22.7,2.7v-22.6H590.3z"/>
	<path class="st0" d="M647.1,549.8h26.7v130.8h-26.7v-39.9l-22.6-1.5h-0.1v41.3h-26.8v-38.9l-9.9-22.6h9.9v-69.3h26.8v69.3h22.7
		L647.1,549.8L647.1,549.8z"/>
	<path class="st0" d="M755.5,572.5l-41-2.5v49.1h41v22.6l-41-2.5v21.1l41-2.5v22.6h-41l-26.7,0.1v-38.9l-10-22.6h10v-69.3h67.7
		V572.5z"/>
	<path class="st0" d="M874.2,600.8l-21.4-1.5v-27.3h-0.5c-1.5-0.1-2.8-0.1-4-0.1c-5.7,0-9.7,0.5-12,1.5s-3.6,4-3.7,9
		c-0.1,0.8-0.1,1.8-0.1,2.9c0,1.2-0.1,2.3-0.1,3.5c0,1.2-0.1,2.2-0.1,3v1.3l46.3,33.1v24.7c0,5.5-1.3,10.5-3.8,15
		c-2.6,4.5-6.2,8.1-11,10.8c-4.8,2.7-10.5,4-17.3,4h-38.9v-46.6l21.4,1.5l2.7,23c2.2,0,4.3,0,6.1,0.1c1.3,0.1,2.5,0.1,3.6,0.1
		c2.9,0,5.4-0.2,7.4-0.6c2-0.4,3.4-1.7,4.1-3.9c0.7-2.2,1.1-5.9,1.1-11v-1.7l-46.3-33.8v-28.1c0-5.5,1.3-10.5,3.8-15
		c2.5-4.5,6.2-8.1,11-10.8c4.8-2.7,10.6-4,17.3-4h37.8L874.2,600.8z"/>
	<path class="st0" d="M959,569.5c0.2,0.9,0.5,2.1,0.7,3.6c0.2,1.5,0.3,2.8,0.3,3.8v76.2c0,5.5-1.3,10.4-3.8,14.9
		c-2.6,4.5-6.2,8-11,10.7c-4.8,2.7-10.6,4-17.4,4h-9c-6.8,0-12.5-1.3-17.3-4c-4.8-2.7-8.5-6.2-11-10.7c-2.5-4.5-3.8-9.4-3.8-14.9
		v-75.7c0-5.5,1.3-10.4,3.8-14.9c2.5-4.5,6.2-8,11-10.7c4.8-2.7,10.6-4,17.3-4h9c8.5,0,15.4,2,20.7,6.1
		C953.9,557.8,957.4,563.1,959,569.5z M933.2,591.8c0-5.7-0.2-10.2-0.5-13.3c-0.3-3.2-1.1-5.4-2.5-6.6c-1.4-1.2-3.7-1.9-6.9-1.9
		c-3.2,0-5.5,0.6-6.9,1.9c-1.4,1.2-2.2,3.5-2.6,6.6c-0.3,3.2-0.5,7.6-0.5,13.3v46.8c0,5.7,0.2,10.2,0.5,13.3
		c0.3,3.2,1.1,5.4,2.5,6.6c1.4,1.2,3.7,1.9,7,1.9s5.6-0.6,7-1.9c1.4-1.2,2.2-3.5,2.5-6.6c0.3-3.2,0.4-7.6,0.4-13.3L933.2,591.8
		L933.2,591.8z"/>
	<path class="st0" d="M1035.2,572.5l-35.6-2.5v49.1h35.6v22.6l-35.6-2.5v41.3h-26.8v-38.9l-9.9-22.6h9.9v-69.3h62.4V572.5z"/>
	<path class="st0" d="M1106.4,549.8v22.6l-21.4-2.2v110.4h-26.8V569.8l-22.7,2.7v-22.6H1106.4z"/>
	<path class="st0" d="M1201.8,549.8h26.8V655l-27.5,27.8l-16.7-16.4v11.3l-26.8,5.3v-16.6l-16.7,16.4l-27.5-27.8V549.8h26.8v100.4
		l17.3-19.1v-62.7l-8.1-18.6h35v81.3l17.3,19.1L1201.8,549.8L1201.8,549.8z"/>
	<path class="st0" d="M1274.4,549.8h44.1v130.8h-26.8v-39.9l-22.5-1.5h-0.1v41.3h-26.8v-38.9l-9.9-22.6h9.9v-39.5
		c0-5.5,1.3-10.5,3.8-15c2.6-4.5,6.2-8.1,11-10.8C1261.8,551.2,1267.6,549.8,1274.4,549.8z M1269,619.1h22.6v-47.2h-0.1
		c-2.6-0.1-4.9-0.2-6.9-0.2c-5.7,0-9.6,0.5-11.7,1.7c-2.6,1.4-3.9,5.4-3.9,12L1269,619.1L1269,619.1z"/>
	<path class="st0" d="M1376.8,680.9l-9-34.4c-3.2,2.3-6.2,4.4-9,6.4v27.8h-26.8V549.8h38.9c6.8,0,12.6,1.3,17.4,4
		c4.8,2.7,8.4,6.3,11,10.8c2.6,4.5,3.8,9.5,3.8,15v38.8c-3.6,3.4-7.6,6.9-12.1,10.6l13.7,51.9H1376.8z M1358.7,571.9v51.6
		c6.6-4.1,13.1-9.3,19.4-15.5v-14.1c0-5.4-0.1-9.5-0.3-12.5c-0.2-3-0.9-5.2-2.1-6.5c-1.2-1.4-3.1-2.2-5.8-2.6
		c-2.2-0.2-5.2-0.4-9-0.4L1358.7,571.9L1358.7,571.9z"/>
	<path class="st0" d="M1483.6,572.5l-41-2.5v49.1h41v22.6l-41-2.5v21.1l41-2.5v22.6h-41l-26.7,0.1v-38.9l-10-22.6h10v-69.3h67.7
		V572.5z"/>
	<path class="st1" d="M1625.4,549.8h26.8V655l-27.5,27.8l-16.7-16.4v11.3l-26.8,5.3v-16.6l-16.7,16.4L1537,655V549.8h26.8v100.4
		l17.3-19.1v-62.7l-8.1-18.6h35v81.3l17.3,19.1L1625.4,549.8L1625.4,549.8z"/>
	<path class="st1" d="M1715.2,568.1l-13.5-0.5v94l13.5,0.3v18.8h-49.9l-7.9-17l17.5-1.3v-94.8l-9.6,0.5l-7.9-18.1l57.9-0.1V568.1z"
		/>
	<path class="st1" d="M1778.3,680.6l-13.4-34.8c-4.3,2.9-8.1,5.5-11.4,7.8v27h-26.7V549.8h26.7v73.9c5.5-4,11.9-9.1,19.3-15.3v-58.6
		h26.4v69.1c-3.4,3.2-7.2,6.5-11.3,9.9l19.2,51.8L1778.3,680.6L1778.3,680.6z"/>
	<path class="st1" d="M1862.2,568.1l-13.5-0.5v94l13.5,0.3v18.8h-49.9l-7.9-17l17.5-1.3v-94.8l-9.6,0.5l-7.9-18.1l57.9-0.1V568.1z"
		/>
</g>
</svg>
